# xmcd
#
# Track frame offsets: 
#        150
#        18385
#        32557
#        49030
#        68670
#        84052
#        105130
#        122202
#        143257
#        158512
#        173175
#        186432
#        208932
#        231637
#
# Disc length: 3307 seconds
#
# Revision: 5
# Processed by: cddbd v1.5.2PL0 Copyright (c) Steve Scherf et al.
# Submitted via: ExactAudioCopy v1.0b3
#
DISCID=ad0ce90e
DTITLE=松山千春 - BEST HITS 14
DYEAR=1996
DGENRE=コンテンポラリー フォーク
TTITLE0=大空と大地の中で
TTITLE1=旅立ち
TTITLE2=初恋
TTITLE3=風車
TTITLE4=君が好きさ
TTITLE5=恋
TTITLE6=時のいたずら
TTITLE7=雪化粧
TTITLE8=青春
TTITLE9=季節の中で
TTITLE10=青春 II
TTITLE11=窓
TTITLE12=卒業
TTITLE13=夜明け
EXTD=YEAR: 1996
EXTT0=
EXTT1=
EXTT2=
EXTT3=
EXTT4=
EXTT5=
EXTT6=
EXTT7=
EXTT8=
EXTT9=
EXTT10=
EXTT11=
EXTT12=
EXTT13=
PLAYORDER=
